<svg xmlns="http://www.w3.org/2000/svg" version="1.1" xmlns:xlink="http://www.w3.org/1999/xlink" xmlns:svgjs="http://svgjs.dev/svgjs" width="1000" height="1000" viewBox="0 0 1000 1000"><rect width="1000" height="1000" fill="#ffffff"></rect><g transform="matrix(0.7,0,0,0.7,150.0000000000001,106.25)"><svg viewBox="0 0 320 360" data-background-color="#ffffff" preserveAspectRatio="xMidYMid meet" height="1125" width="1000" xmlns="http://www.w3.org/2000/svg" xmlns:xlink="http://www.w3.org/1999/xlink"><g id="tight-bounds" transform="matrix(1,0,0,1,0,0)"><svg viewBox="0 0 320 360" height="360" width="320"><g><svg></svg></g><g><svg viewBox="0 0 320 360" height="360" width="320"><g><path xmlns="http://www.w3.org/2000/svg" d="M20.961 227.22l3.726 4.658-1.863-6.056c-0.466-2.795-3.726 0.466-1.863 1.398M25.153 224.425c1.397 2.329 2.795 4.658 2.795 6.987 0 3.261 2.795 4.658 5.123 5.589-3.261-3.726-5.124-13.974-7.918-12.576M204.017 26.929c7.918 0 15.371-0.932 23.756 0.931 20.495 5.124 37.729 15.371 49.374 29.811l32.606 52.169c1.397 13.042 4.192 27.482 3.726 43.319 3.261 0 2.795-4.658 6.521-5.59-3.726 9.316-5.59 20.961-6.521 34.469-2.329-7.453 0-18.632 0.466-24.687-3.261 5.124-5.124 1.397-5.124-0.932 0.466-3.726-1.397-3.261-2.795-4.658-5.124-4.658-8.384-9.782-12.11-17.7 2.329-6.055 2.795-14.905-4.658-19.563-2.329-1.397-5.124-3.726-6.521-7.453-1.863-5.124-5.124-11.179-4.193-19.097 0.466-2.329-6.987 5.124-11.179 1.863-18.166-12.576-36.332-27.016-58.224-39.127-11.645 0-20.029-4.192-24.221-9.316-3.726-4.658-0.932-10.713 4.658-11.179 3.261 0 6.987-0.932 9.782 0.932 0.466-1.863 2.329-4.192 4.657-4.192M157.904 16.215l0.932 0.466c4.658 0.932 6.987 7.453 12.11 5.124 0 3.261 0.466 6.521-0.466 8.85-1.397 3.726-5.59 3.726-8.85 3.726-31.208-1.863-49.374 11.179-68.471 22.358-5.124 3.261-10.713 5.59-14.906 9.782-20.029 18.632-41.921 35.866-47.045 70.335l-4.192 38.195c-0.466 4.192-5.124 8.384-4.192 13.508l3.26 22.824c-3.261-3.261-5.124 0.932-4.192 2.795 0.466 1.397 2.329 6.055 5.124 1.863 3.726 6.987 7.453 20.495 12.576 26.55 15.837 18.632 36.332 35.4 53.101 52.169 4.192-0.932 7.453-0.932 8.384-3.727 1.397 2.795-1.397 5.59-3.726 6.056 7.453 4.658 15.837 8.85 27.016 9.781 14.44 0.932 27.948 3.261 40.524 6.522 6.521-1.863 13.042-2.795 20.029-3.261 2.329 0 3.726-3.726 6.521-4.658l0.466-4.658c2.795 4.192 2.329-1.397 0.466-4.192 3.261 2.795 4.192 5.124 5.589 6.987 0-1.397 3.726-6.521 3.727-0.466l0.931-6.055c1.397-0.932 1.863 5.124 3.261 0.931 1.397-4.192 4.192-0.932 6.987-2.329-0.932 1.863-0.466 5.59 2.794 3.261l3.727-3.261c2.329 5.59 6.055 3.261 7.918 2.329 20.495-13.042 40.99-28.413 60.553-43.784l-0.466 6.055 2.329-7.453c2.329 2.329 4.192 0.466 5.124-0.931 2.795-4.658 6.521-9.316 12.577-13.508-7.453 20.029-16.303 35.866-27.482 48.908l-4.658 5.59c0 3.261-0.932 7.453-4.658 7.918-1.863 0.466-5.59-0.932-8.384 1.863-1.397 1.863 3.261 5.59-0.466 2.795-3.261-2.329-6.521 0-10.248 0.932-2.795 0.932 1.863 3.726 2.795 5.589 0.932 1.863 1.863 3.726 1.398 6.056l-5.124-5.59c-6.055 3.261-9.782 9.316-14.906 13.974-2.329 1.863-1.397 5.124-1.397 7.918-3.261 0-6.987-0.932-8.85 0.932-1.397 1.863-0.932 4.658-0.932 7.453-4.658-0.466-5.124-7.453-9.315-6.056-4.192 0.932-8.85 1.397-12.577 3.727 2.795 5.59-4.658 2.329-3.726 3.26-6.987-4.192-13.042-7.453-20.495-4.658-15.837-5.124-35.4-2.795-49.84-0.931 0-2.329 0.466-4.658-0.466-5.124-0.932 2.329-3.726 1.397-3.26 1.397-8.85-6.055-17.7-9.782-27.016-14.905-8.384 0.932-16.303-3.261-18.632-5.59-6.521-6.055-13.974-2.795-20.029-4.192-13.042-3.261-17.7-16.769-19.098-26.084-0.932-4.658-4.658-6.521-6.055-6.056-6.055-19.563-15.371-37.263-22.824-55.429-1.863-4.658-1.397-9.316-1.397-14.44 2.329 0.932 4.658 0.466 4.192-2.794-2.329-15.371-7.918-27.016-13.974-38.195 3.261-15.837 3.726-34.469 11.179-48.443 6.521-12.576 18.632-19.098 27.016-29.811 2.795-3.726 2.795-8.85 5.59-12.11 9.316-9.316 18.632-19.098 28.879-27.482 4.658-3.726 10.247 0 17.234-1.397 2.329-8.384 11.645-15.837 20.495-13.508 3.726 0.932 11.179-8.85 13.508-9.782 3.726-1.397 1.863 3.726 1.863 6.987 8.85-6.987 20.961-10.713 32.14-14.906" fill="#000000" fill-rule="nonzero" stroke="none" stroke-width="1" stroke-linecap="butt" stroke-linejoin="miter" stroke-miterlimit="10" stroke-dasharray="" stroke-dashoffset="0" font-family="none" font-weight="none" font-size="none" text-anchor="none" style="mix-blend-mode: normal" data-fill-palette-color="tertiary"></path></g><g transform="matrix(1,0,0,1,64,136.20246238030097)"><svg viewBox="0 0 192 87.59507523939808" height="87.59507523939808" width="192"><g><svg viewBox="0 0 192 87.59507523939808" height="87.59507523939808" width="192"><g><svg viewBox="0 0 192.00000000000003 87.5950752393981" height="87.59507523939808" width="192"><g><svg viewBox="0 0 192.00000000000003 87.5950752393981" height="87.5950752393981" width="192.00000000000003"><g id="textblocktransform"><svg viewBox="0 0 192.00000000000003 87.5950752393981" height="87.5950752393981" width="192.00000000000003" id="textblock"><g><svg viewBox="0 0 192.00000000000003 87.5950752393981" height="87.5950752393981" width="192.00000000000003"><g transform="matrix(1,0,0,1,0,0)"><svg width="192.00000000000003" viewBox="0.45000001788139343 -29.600000381469727 73.10000610351562 33.349998474121094" height="87.5950752393981" data-palette-color="#124948"><path d="M13.55-2.9L13.55-2.9Q13.7-2.9 13.7-2.6 13.7-2.3 13-1.6L13-1.6 12.5-0.85Q11.15 1.2 10.53 1.55 9.9 1.9 9.53 1.9 9.15 1.9 8.38 1.73 7.6 1.55 7.58 1.35 7.55 1.15 7.55 0.95L7.55 0.95Q7.55-1.5 12-10.1L12-10.1Q10.8-9.95 10.18-9.95 9.55-9.95 9.13-10.33 8.7-10.7 8.7-11.3 8.7-11.9 9.75-12.4 10.8-12.9 11.38-12.9 11.95-12.9 12.35-12.43 12.75-11.95 12.85-11.95L12.85-11.95 13-11.95Q14.05-13.85 14.9-15.45 15.75-17.05 15.75-17.53 15.75-18 15.6-18.25L15.6-18.25Q15.9-19.7 18.07-21.95 20.25-24.2 22.05-24.2L22.05-24.2Q22.85-24.2 24-23.58 25.15-22.95 25-21.95L25-21.95Q24.65-22.2 24.35-22.2L24.35-22.2Q20.95-22.2 15-12L15-12Q16.65-12.15 18.45-12.45L18.45-12.45Q24.45-13.2 25.25-13.2 26.05-13.2 26.28-13.18 26.5-13.15 26.68-13.05 26.85-12.95 26.9-12.85L26.9-12.85Q26.95-12.55 25.75-12.15L25.75-12.15Q22.85-11.2 14-10.25L14-10.25Q9.8-2.65 9.8-0.9L9.8-0.9Q9.8-0.05 10.53-0.28 11.25-0.5 11.8-1.2L11.8-1.2Q13.1-2.9 13.55-2.9ZM33.1-26.7L33.1-26.7Q34.55-28.3 35.85-28.3L35.85-28.3Q36.45-28.3 36.8-28 37.15-27.7 37.15-27.4 37.15-27.1 36.85-26.8 36.55-26.5 35.7-25.88 34.85-25.25 34.35-24.75L34.35-24.75Q31.95-22.4 31.95-20.7L31.95-20.7Q31.95-19.95 32.27-19.45 32.6-18.95 32.2-18.82 31.8-18.7 31.45-19.15L31.45-19.15Q31-19.45 31-21.15L31-21.15Q31-23.4 31.8-24.9L31.8-24.9Q31.9-25.05 32.13-25.43 32.35-25.8 32.5-25.95L32.5-25.95Q32.15-25.95 30.63-25.95 29.1-25.95 24.58-26.35 20.05-26.75 17.75-26.75 15.45-26.75 14.2-26.45L14.2-26.45Q9.45-25.8 6.03-23.83 2.6-21.85 1.95-18.85L1.95-18.85Q1.85-18.55 1.85-18.13 1.85-17.7 2.13-17.1 2.4-16.5 2.8-16.15 3.2-15.8 4.03-15.3 4.85-14.8 5.13-14.58 5.4-14.35 5.23-14.2 5.05-14.05 4.88-14.05 4.7-14.05 4.5-14.1L4.5-14.1Q2.8-14.6 1.63-15.98 0.45-17.35 0.45-18.28 0.45-19.2 0.7-19.85L0.7-19.85Q0.7-20.4 0.75-20.65L0.75-20.65Q1.5-24.2 5.3-26.15L5.3-26.15Q9.85-28.5 16.4-28.5L16.4-28.5Q20-28.5 25.25-27.65 30.5-26.8 33.1-26.7ZM65.65-25.6Q65.75-25.5 66.09-25.48 66.44-25.45 66.72-25.2 67-24.95 67.57-23.55 68.15-22.15 68.15-21.23 68.15-20.3 67.92-19.28 67.69-18.25 67.19-18.25L67.19-18.25Q66.34-18.25 65.8-20.23 65.25-22.2 65-22.7L65-22.7Q63.59-25.65 62-27L62-27Q60.55-28.35 59.05-28.35L59.05-28.35Q58.4-28.35 57.75-28.1L57.75-28.1Q54.55-26.75 54.55-21.8L54.55-21.8Q54.55-20.2 55.14-18.03 55.75-15.85 57-14.2L57-14.2Q57.25-13.9 59.65-13.7L59.65-13.7Q60.9-13.55 61.09-12.83 61.3-12.1 60.5-11.7L60.5-11.7Q60.05-11.15 57.05-12L57.05-12Q56.25-12.2 56-12.25L56-12.25Q53.3-12.2 49.9-11.05 46.5-9.9 43.65-7.53 40.8-5.15 40.8-2.3L40.8-2.3Q40.8-0.15 42.55 1.18 44.3 2.5 48.17 2.5 52.05 2.5 56.82 1.3 61.59 0.1 64.32-1.3 67.05-2.7 69.69-5.25 72.34-7.8 72.34-9.65L72.34-9.65Q72.34-9.95 72.32-10.15 72.3-10.35 72.4-10.4L72.4-10.4Q72.69-10.55 72.9-10.35L72.9-10.35Q73.55-9.1 73.55-8.4L73.55-8.4Q73.55-6.35 72.19-4.7L72.19-4.7Q69.84-1.85 66.9-0.2 63.95 1.45 58.82 2.6 53.7 3.75 50.3 3.75 46.9 3.75 44.52 3.15 42.15 2.55 40.4 0.75 38.65-1.05 38.65-3.68 38.65-6.3 39.92-8.13 41.2-9.95 42.97-10.95 44.75-11.95 47.25-12.6L47.25-12.6Q50.95-13.6 55.5-13.85L55.5-13.85Q52.25-17.55 51.65-22.4L51.65-22.4Q51.59-22.95 51.59-23.45L51.59-23.45Q51.59-25.25 52.47-26.78 53.34-28.3 55.39-28.95 57.45-29.6 58.45-29.6 59.45-29.6 59.92-29.48 60.4-29.35 60.75-29.23 61.09-29.1 61.45-28.88 61.8-28.65 62.05-28.5 62.3-28.35 62.65-28.03 63-27.7 63.15-27.58 63.3-27.45 63.7-27.08 64.09-26.7 64.19-26.65L64.19-26.65Q64.94-25.75 65.65-25.6L65.65-25.6Z" opacity="1" transform="matrix(1,0,0,1,0,0)" fill="#000000" class="wordmark-text-0" data-fill-palette-color="primary" id="text-0"></path></svg></g></svg></g></svg></g></svg></g><g></g></svg></g></svg></g></svg></g></svg></g><defs></defs></svg><rect width="320" height="360" fill="none" stroke="none" visibility="hidden"></rect></g></svg></g></svg>